<?xml version="1.0" standalone="no"?>
<!DOCTYPE svg PUBLIC "-//W3C//DTD SVG 20010904//EN"
 "http://www.w3.org/TR/2001/REC-SVG-20010904/DTD/svg10.dtd">
<svg version="1.0" xmlns="http://www.w3.org/2000/svg"
 width="2176.000000pt" height="1792.000000pt" viewBox="0 0 2176.000000 1792.000000"
 preserveAspectRatio="xMidYMid meet">

<g transform="translate(0.000000,1792.000000) scale(0.100000,-0.100000)"
fill="#000000" stroke="none">
<path d="M0 8960 l0 -8960 10880 0 10880 0 0 8960 0 8960 -10880 0 -10880 0 0
-8960z m10549 7631 c458 -55 805 -142 1229 -307 495 -193 1045 -525 1472 -888
171 -145 533 -516 661 -676 410 -515 682 -993 912 -1600 193 -512 301 -991
354 -1572 20 -220 19 140 15 -6203 -1 -2090 -2 -3830 -2 -3867 l0 -68 2608 0
2608 0 44 -22 c108 -55 117 -197 16 -265 l-41 -28 -2725 -3 c-2014 -2 -2732 1
-2753 9 -39 16 -78 64 -143 176 -49 85 -161 275 -334 568 -92 157 -161 276
-435 750 -153 264 -281 485 -285 490 -4 6 -32 53 -62 105 -89 155 -366 629
-418 715 -26 44 -132 226 -235 405 -104 179 -235 406 -293 505 -58 99 -153
263 -212 365 -107 183 -251 431 -268 460 -7 12 -12 10 -24 -10 -20 -32 -423
-760 -579 -1045 -70 -129 -132 -241 -201 -365 -152 -274 -189 -341 -358 -650
-95 -173 -203 -369 -240 -435 -37 -66 -100 -181 -140 -255 -40 -74 -112 -205
-160 -290 -48 -85 -114 -204 -147 -265 -34 -60 -117 -211 -185 -335 -69 -124
-144 -261 -168 -305 -24 -44 -79 -145 -123 -225 -208 -378 -218 -393 -274
-416 -65 -28 -149 -8 -191 45 -15 19 -358 704 -554 1106 -75 154 -229 467
-341 695 -243 494 -371 755 -482 985 -45 94 -130 267 -188 385 -233 477 -534
1098 -639 1318 -61 127 -114 232 -117 232 -3 -1 -66 -94 -140 -208 -73 -114
-196 -304 -273 -422 -76 -118 -181 -280 -232 -360 -51 -80 -245 -379 -431
-665 -320 -492 -431 -664 -527 -815 -23 -36 -83 -128 -133 -205 -125 -191
-281 -432 -760 -1175 -87 -135 -208 -321 -269 -415 -61 -93 -136 -210 -166
-259 -98 -160 -172 -214 -260 -187 -52 16 -94 52 -113 100 -13 32 -14 55 -6
137 9 92 72 817 84 964 10 118 55 630 80 905 14 149 52 592 85 985 33 393 69
812 80 930 25 278 106 1207 120 1375 6 72 19 222 30 335 23 234 43 466 100
1150 22 267 44 526 50 575 5 50 30 333 55 630 24 297 47 565 50 595 3 30 18
210 35 400 16 190 32 368 35 395 13 133 45 572 55 755 23 414 71 726 175 1135
216 851 664 1701 1248 2369 504 574 1185 1076 1863 1369 289 125 629 238 892
297 208 46 578 99 802 114 30 2 199 2 375 1 247 -3 360 -8 494 -24z"/>
<path d="M9770 16294 c-25 -2 -103 -9 -175 -15 -485 -40 -921 -140 -1330 -306
-528 -214 -1053 -538 -1460 -899 -203 -181 -441 -430 -575 -603 -36 -46 -90
-116 -120 -155 -167 -213 -354 -516 -510 -821 -47 -93 -97 -195 -109 -225 -91
-214 -115 -274 -164 -411 -115 -320 -209 -692 -256 -1014 -25 -172 -51 -436
-51 -522 l0 -63 4927 0 4926 0 -6 128 c-18 351 -84 774 -174 1107 -259 968
-766 1830 -1466 2492 -445 421 -950 746 -1518 977 -564 229 -1021 321 -1634
330 -143 2 -280 2 -305 0z m-1510 -2253 c285 -54 517 -145 740 -291 216 -142
373 -302 530 -541 69 -104 130 -220 130 -245 0 -38 -51 -101 -160 -196 -351
-306 -763 -483 -1300 -559 -130 -18 -500 -16 -655 5 -320 42 -666 148 -895
274 -146 80 -371 243 -478 346 -45 43 -82 102 -82 133 0 54 128 260 259 415
265 316 669 555 1081 642 186 39 254 45 495 41 172 -2 245 -8 335 -24z m4245
5 c122 -22 311 -71 392 -101 426 -161 820 -515 1009 -908 52 -109 34 -141
-172 -302 -259 -203 -444 -306 -714 -398 -557 -189 -1167 -191 -1722 -6 -298
99 -546 239 -793 446 -158 133 -167 171 -73 329 246 413 633 725 1075 868 96
31 306 75 423 90 85 10 488 -2 575 -18z"/>
<path d="M7603 13734 c-370 -54 -677 -207 -939 -469 -49 -49 -118 -130 -152
-179 l-62 -90 27 -23 c61 -51 241 -165 342 -217 230 -117 514 -203 786 -235
159 -20 175 -21 175 -13 0 4 -20 19 -44 35 -101 63 -221 215 -266 333 -33 90
-43 143 -43 249 -1 123 17 198 80 325 39 81 60 108 135 183 49 48 95 87 101
87 7 0 21 7 31 15 18 14 16 15 -30 14 -27 -1 -90 -7 -141 -15z"/>
<path d="M8495 13610 c-102 -23 -184 -125 -185 -228 0 -86 66 -185 147 -219
45 -18 157 -17 199 3 43 20 90 74 110 125 9 21 20 37 24 34 20 -13 42 -158 38
-248 -7 -145 -78 -321 -168 -417 -17 -18 -29 -34 -28 -35 4 -4 155 58 250 102
118 56 290 167 417 269 5 5 -76 122 -128 184 -98 118 -220 224 -366 320 -147
95 -235 127 -310 110z"/>
<path d="M11940 13743 c-249 -26 -525 -122 -725 -251 -156 -100 -345 -281
-441 -424 l-52 -75 67 -50 c63 -47 248 -161 319 -197 157 -80 433 -170 627
-205 120 -21 315 -44 322 -37 3 3 -15 17 -39 32 -106 67 -212 196 -262 320
-128 314 -16 679 266 865 l43 29 -45 -2 c-25 0 -61 -3 -80 -5z"/>
<path d="M12730 13599 c-95 -43 -143 -116 -144 -220 0 -54 5 -74 28 -113 64
-109 191 -149 316 -98 39 16 76 55 105 113 32 62 39 56 54 -42 34 -205 -28
-435 -152 -566 -27 -29 -47 -53 -43 -53 14 0 227 90 303 128 89 46 244 146
318 205 28 23 52 42 54 44 11 7 -122 186 -196 263 -137 144 -347 291 -485 340
-72 25 -101 25 -158 -1z"/>
<path d="M5104 10918 c61 -140 172 -386 305 -671 55 -120 101 -220 101 -221 0
-2 34 -74 75 -160 41 -86 75 -158 75 -160 0 -4 145 -311 241 -512 77 -162 150
-316 254 -539 56 -121 131 -278 165 -350 34 -71 133 -281 220 -465 352 -748
415 -882 487 -1030 42 -85 93 -193 115 -239 21 -46 40 -82 42 -80 2 2 99 184
216 404 117 220 229 432 250 470 62 116 113 212 207 390 194 365 266 500 273
510 4 6 55 100 112 210 58 110 117 220 130 245 14 25 44 81 68 125 24 44 55
103 70 130 15 28 51 95 80 150 29 55 146 273 260 485 113 212 253 473 310 580
57 107 113 211 125 230 12 19 50 91 85 160 35 69 92 177 127 242 35 64 63 119
63 122 0 3 -1006 6 -2235 6 l-2235 0 14 -32z"/>
<path d="M10068 10933 c5 -10 30 -61 55 -113 25 -52 71 -149 102 -215 32 -66
72 -151 90 -190 18 -38 74 -158 125 -265 51 -107 159 -337 240 -510 147 -314
364 -772 675 -1425 87 -182 406 -854 513 -1080 179 -378 260 -550 325 -684
l64 -134 73 134 c40 74 78 143 85 154 7 11 87 160 180 330 195 361 224 414
257 475 14 25 46 86 73 135 26 50 51 95 55 100 4 6 43 75 85 155 43 80 89 165
102 190 14 25 46 83 71 130 25 47 79 146 120 220 40 74 121 223 179 330 115
211 294 543 446 820 52 96 114 211 137 255 23 44 50 94 60 110 18 30 44 79
135 250 26 50 55 104 65 120 10 17 92 168 184 337 91 169 175 322 186 340 11
18 20 36 20 41 0 4 -1060 7 -2355 7 -2240 0 -2355 -1 -2347 -17z"/>
<path d="M9795 10711 c-3 -11 -29 -62 -57 -113 -142 -262 -191 -352 -308 -573
-70 -132 -169 -316 -220 -410 -51 -93 -129 -240 -175 -325 -170 -321 -449
-845 -570 -1070 -40 -74 -88 -164 -107 -200 -19 -36 -82 -153 -140 -260 -58
-107 -194 -361 -303 -565 -109 -203 -228 -426 -265 -495 -38 -69 -120 -223
-184 -343 l-116 -218 84 -177 c46 -97 140 -292 209 -432 69 -140 154 -316 190
-390 241 -501 483 -999 760 -1565 435 -889 694 -1417 942 -1918 37 -76 72
-134 76 -130 4 4 85 148 180 318 94 171 180 322 190 337 11 14 19 29 19 33 0
8 224 417 465 850 68 121 134 240 148 265 52 95 151 278 190 350 22 41 45 84
52 95 21 34 259 466 310 560 26 50 51 95 55 100 4 6 29 51 55 100 26 50 98
180 160 290 95 169 202 364 393 715 19 36 41 74 48 85 6 11 41 74 77 140 35
66 76 141 90 166 l26 46 -46 94 c-25 52 -112 236 -193 409 -81 173 -182 385
-223 470 -41 85 -113 236 -160 335 -47 99 -115 243 -152 320 -37 77 -98 205
-135 285 -37 80 -94 199 -125 265 -163 342 -190 398 -493 1040 -88 187 -269
567 -402 845 -132 278 -260 547 -283 597 -23 51 -45 93 -49 93 -4 0 -9 -9 -13
-19z"/>
<path d="M4946 10383 c-3 -43 -28 -341 -56 -663 -49 -582 -57 -674 -124 -1410
-20 -212 -54 -601 -76 -865 -22 -264 -42 -496 -45 -515 -5 -35 -42 -462 -110
-1270 -19 -228 -44 -503 -55 -610 -10 -107 -35 -388 -55 -625 -19 -236 -42
-504 -50 -595 -8 -91 -29 -327 -45 -525 -17 -198 -42 -478 -55 -622 -14 -144
-34 -378 -45 -520 -11 -142 -23 -271 -25 -288 -5 -29 -5 -29 10 -10 24 31 311
466 390 590 38 61 115 180 170 265 56 85 144 220 195 300 51 80 143 222 203
315 61 94 131 202 155 240 25 39 73 113 107 165 190 291 437 673 671 1038 32
51 107 166 165 255 189 290 233 358 399 617 89 140 187 292 217 337 29 45 64
101 77 123 l24 42 -85 176 c-87 181 -288 607 -538 1142 -79 168 -218 465 -310
660 -92 195 -237 504 -322 685 -86 182 -191 407 -235 500 -45 94 -119 251
-165 350 -99 208 -187 399 -249 538 -51 112 -123 257 -128 257 -2 0 -6 -35
-10 -77z"/>
<path d="M14828 10387 c-21 -39 -69 -128 -106 -197 -75 -135 -373 -685 -443
-815 -23 -44 -133 -246 -244 -450 -111 -203 -292 -536 -403 -740 -110 -203
-235 -433 -277 -510 -42 -77 -120 -219 -172 -315 -53 -96 -147 -269 -211 -385
-258 -473 -294 -537 -385 -705 -114 -210 -147 -276 -147 -290 0 -11 43 -86
273 -482 68 -117 186 -321 262 -453 76 -132 215 -373 310 -535 95 -162 207
-356 250 -430 101 -175 172 -296 400 -685 104 -176 204 -347 223 -380 19 -33
42 -73 52 -90 302 -524 653 -1126 655 -1123 6 8 13 8658 7 8658 -4 0 -24 -33
-44 -73z"/>
</g>
</svg>
